<svg width="50" height="49" viewBox="0 0 50 49" fill="none" xmlns="http://www.w3.org/2000/svg">
<g clip-path="url(#clip0)">
<path d="M19.7988 44.2186C20.2032 44.0752 20.3634 43.9404 20.5067 43.6118C20.6415 43.2746 20.6501 42.8785 20.515 42.6343C20.4646 42.5331 19.8406 41.8841 19.1412 41.1847C17.0931 39.162 15.8795 37.4846 14.6741 35.0321C13.6036 32.8577 12.9296 30.7084 12.5588 28.2895C12.3396 26.8735 12.3396 23.4012 12.5502 22.0103C13.1824 17.9226 14.7835 14.2229 17.2954 11.0538C17.6072 10.6576 18.4418 9.76442 19.1412 9.06465C19.8492 8.37347 20.4645 7.71629 20.5235 7.6233C20.7509 7.18491 20.5235 6.43513 20.077 6.15694C19.7316 5.94634 19.133 5.94634 18.7876 6.16514C18.3746 6.41794 16.6301 8.12888 15.8799 9.03066C12.635 12.8905 10.7048 17.3576 10.1235 22.3471C9.95505 23.7294 9.96326 26.5441 10.1235 27.9433C10.806 33.7423 13.3766 38.9596 17.5486 42.9879C18.8716 44.269 19.1752 44.4378 19.7988 44.2186Z" fill="white"/>
<path d="M23.1871 40.5943C23.5243 40.4173 23.7181 40.1813 23.8193 39.8019C23.9709 39.2456 23.8275 39.0182 22.6647 37.8636C19.5714 34.8125 17.7597 31.0706 17.3299 26.8227C16.9673 23.1734 17.8273 19.2878 19.7066 16.1358C20.5072 14.7957 21.4344 13.6157 22.6397 12.4275C23.7693 11.3066 23.9545 11.0116 23.8451 10.5564C23.7525 10.1348 23.4829 9.80623 23.1289 9.66322C22.5475 9.43583 22.2439 9.53663 21.4012 10.2868C18.8728 12.5287 16.8165 15.7904 15.7373 19.2713C14.5996 22.9546 14.5996 27.3033 15.7373 30.9866C16.7571 34.2737 18.4176 37.0212 20.8784 39.4651C22.1334 40.7123 22.5549 40.9147 23.1871 40.5943Z" fill="white"/>
<path d="M32.0197 39.4483C32.1967 39.4061 32.458 39.3135 32.6096 39.2377C32.7612 39.1533 34.843 37.5604 37.2451 35.6978L41.6024 32.2927H44.0295H46.4656L46.988 32.0314C47.5694 31.7364 47.9996 31.239 48.1766 30.6576C48.3282 30.1434 48.3282 20.0719 48.1766 19.6081C47.9406 18.9001 47.4686 18.4028 46.727 18.091C46.4656 17.9898 45.9854 17.9644 44.0049 17.9644H41.6028L37.2201 14.5425C34.8098 12.6627 32.6518 11.0448 32.433 10.9522C31.5481 10.5478 30.4525 10.8088 29.7613 11.5758C29.0869 12.3342 29.1291 11.3484 29.1291 25.1282C29.1291 38.9084 29.0869 37.9222 29.7613 38.6806C30.3341 39.3217 31.2613 39.6335 32.0197 39.4483ZM31.5055 19.1361L31.5309 13.1437L35.7197 16.4054L39.9168 19.6757V25.1286V30.5814L35.7197 33.8517L31.5309 37.122L31.5055 31.1214C31.4973 27.8257 31.4973 22.4318 31.5055 19.1361ZM41.0968 25.1286V20.3243H43.4989H45.901V25.1286V29.9324H43.4989H41.0968V25.1286Z" fill="white"/>
<path d="M26.0863 35.7737C26.4571 35.5881 26.6844 35.2091 26.6844 34.7539C26.6844 34.2565 26.6001 34.1303 25.7827 33.3126C24.1983 31.7364 23.2036 30.0087 22.6726 27.9187C21.6614 23.9404 22.8578 19.7938 25.8331 16.9114C26.5411 16.2203 26.6844 15.9929 26.6844 15.5209C26.6844 15.0657 26.4653 14.7035 26.0777 14.5011C25.4455 14.1807 25.0411 14.3241 24.1475 15.1923C21.8212 17.4592 20.397 20.3501 20.0262 23.5528C19.8829 24.7414 19.9672 26.7555 20.1946 27.8429C20.7846 30.658 22.108 33.077 24.1475 35.0657C25.0243 35.9253 25.4627 36.0769 26.0863 35.7737Z" fill="white"/>
</g>
<defs>
<clipPath id="clip0">
<rect width="50" height="49" fill="white" transform="translate(50 49) rotate(180)"/>
</clipPath>
</defs>
</svg>
